<?xml version="1.0" encoding="UTF-8"?>
<svg width="248.05mm" height="136.19mm" version="1.1" viewBox="0 0 248.05 136.19" xmlns="http://www.w3.org/2000/svg">
 <g transform="translate(11.339 140.67)">
  <g transform="matrix(2.7561 0 0 2.7561 -25.12 -210.38)" clip-rule="evenodd" fill="#9858ba" fill-rule="evenodd" featureKey="hmhgWD-0">
   <path d="m38.481 69.952-1.83 3.17h26.699l-1.83-3.17h-23.039m24.869-43.074h-26.699l1.83 3.17h23.038l1.831-3.17m-23.039 6.34-9.689 16.782 9.689 16.782h19.378l9.689-16.782-9.689-16.782h-19.378m-4.575 41.489-14.265-24.707 14.264-24.707h28.529l14.265 24.707-14.264 24.707h-28.529"/>
   <polyline points="77.614 35.736 82.189 27.811 95 50 82.189 72.189 77.614 64.264 85.85 50 77.614 35.736"/>
   <polyline points="17.811 72.189 5 50 17.811 27.811 22.386 35.736 14.151 50 22.386 64.264 17.811 72.189"/>
  </g>
 </g>
</svg>
