<?xml version="1.0" encoding="us-ascii" standalone="no"?><svg xmlns="http://www.w3.org/2000/svg" xmlns:xlink="http://www.w3.org/1999/xlink" contentStyleType="text/css" height="133px" preserveAspectRatio="none" style="width:546px;height:133px;background:#FFFFFF;" version="1.1" viewBox="0 0 546 133" width="546px" zoomAndPan="magnify"><defs/><g><!--entity controller--><g id="elem_controller"><rect fill="#000000" height="36.2969" rx="2.5" ry="2.5" style="stroke:#181818;stroke-width:0.5;" width="189" x="7" y="91.13"/><text fill="#FFFFFF" font-family="sans-serif" font-size="14" lengthAdjust="spacing" textLength="169" x="17" y="114.1251">Shopping Cart Controller</text></g><!--entity abstraction--><g id="elem_abstraction"><rect fill="#FFFFFF" height="36.2969" rx="2.5" ry="2.5" style="stroke:#181818;stroke-width:0.5;" width="156" x="231.5" y="91.13"/><text fill="#000000" font-family="sans-serif" font-size="14" lengthAdjust="spacing" textLength="136" x="241.5" y="114.1251">Abstraction (toggle)</text></g><!--entity old_sc--><g id="elem_old_sc"><rect fill="#000000" height="36.2969" rx="2.5" ry="2.5" style="stroke:#181818;stroke-width:0.5;" width="118" x="422.5" y="91.13"/><text fill="#FFFFFF" font-family="sans-serif" font-size="14" lengthAdjust="spacing" textLength="98" x="432.5" y="114.1251">Shopping Cart</text></g><g id="elem_GMN5"><path d="M231,6 L231,31.1328 A0,0 0 0 0 231,31.1328 L305.5,31.1328 L309.5,90.71 L313.5,31.1328 L388,31.1328 A0,0 0 0 0 388,31.1328 L388,16 L378,6 L231,6 A0,0 0 0 0 231,6 " fill="#FEFFDD" style="stroke:#181818;stroke-width:0.5;"/><path d="M378,6 L378,16 L388,16 L378,6 " fill="#FEFFDD" style="stroke:#181818;stroke-width:0.5;"/><text fill="#000000" font-family="sans-serif" font-size="13" lengthAdjust="spacing" textLength="136" x="237" y="23.0669">Implements Interface</text></g><!--link controller to abstraction--><g id="link_controller_abstraction"><path d="M196.16,109.28 C207.82,109.28 213.47,109.28 225.13,109.28 " fill="none" id="controller-to-abstraction" style="stroke:#181818;stroke-width:1.0;"/><polygon fill="#181818" points="231.13,109.28,222.13,105.28,226.13,109.28,222.13,113.28,231.13,109.28" style="stroke:#181818;stroke-width:1.0;"/></g><!--link abstraction to old_sc--><g id="link_abstraction_old_sc"><path d="M387.77,109.28 C399.25,109.28 404.72,109.28 416.19,109.28 " fill="none" id="abstraction-to-old_sc" style="stroke:#181818;stroke-width:1.0;"/><polygon fill="#181818" points="422.19,109.28,413.19,105.28,417.19,109.28,413.19,113.28,422.19,109.28" style="stroke:#181818;stroke-width:1.0;"/></g><!--SRC=[TKxDYi903BxdAO9UseCleB2m5WJFFe34CKu7fycGoRA2xBjlQM6jXytj-yltrNkIGaO36WSdYPdn2JZUdi8zcdx9jTEiXfSy4fDoKF6P- -wJC_m0lCAhKw-b98dOaJbsezSqPxOLKiNm1vUHpqjre-191HlNE9BjPAU5i9xATiuFtyvR_YkTefglvne0H9tHjQ3UtjvjyJYKp0EBLpoAizqeC43pcjZYnbBiVVE1pIBQmXjQcEREzXS0]--></g></svg>